<svg xmlns="http://www.w3.org/2000/svg" width="199.69" height="243.86" viewBox="0 0 199.69 243.86"><path d="M225,80.35c0,24,.21,48-.07,72-.19,15.37-5,29.49-13.09,42.62-7.67,12.42-18,22.14-29.43,31-12.69,9.78-27.1,15.75-42.28,20.21-1.32.39-2.68.69-4,1.19-2,.77-2.68-.17-2.71-2-.05-2.43,0-4.86,0-7.29q0-22.12-.08-44.26c0-3.42.46-3.91,3.64-5.11,11.69-4.43,22.63-10.13,30.41-20.24a58.3,58.3,0,0,0,11.79-30.12c1.7-16.81.76-33.68,1-50.52,0-1.8-.53-1.85-1.93-1.13-11.79,6-23.65,11.88-35.34,18.06-2.46,1.31-4.94,2.67-7.36,4.11-1.5.88-2.29,1-2.28-1.22.07-10.86-.12-21.73.07-32.58.21-12.21,5.71-21.57,15.21-29.31s20.33-13,31-18.53c8.2-4.28,16.61-8.18,24.6-12.82,5.89-3.42,12-6.34,18-9.57,2.82-1.53,2.84-1.49,2.84,1.83V80.35Z" transform="translate(-25.4 -3.75)" style="fill:#38a5dd"/><path d="M25.44,80.63V6.2c0-3,.06-2.95,2.75-1.52,4.3,2.29,8.75,4.31,13,6.76,10.92,6.35,22.35,11.74,33.47,17.7,7.44,4,15.28,7.34,22,12.47,7.31,5.59,14.72,11.28,18,20.48,2.29,6.43,2.68,13.14,2.66,19.88,0,8.51-.22,17-.22,25.53,0,2.1-.5,2.41-2.29,1.37-13.74-8-28.1-14.73-42.17-22.07-1.72-.9-2.29-1-2.27,1.23.1,13-.08,25.94.16,38.91.21,11.14,1.64,22,6.76,32.26,6.35,12.68,16.49,21,29.21,26.57,2.67,1.17,5.38,2.28,8.12,3.29a3.31,3.31,0,0,1,2.49,3.6q0,26.39.11,52.77c0,1.91-.56,2.52-2.38,2-10.93-3.16-21.76-6.56-31.82-12-16.79-9.11-31.1-21.14-42-36.8-10.15-14.55-15.63-30.72-15.51-48.67C25.56,126.84,25.44,103.74,25.44,80.63Z" transform="translate(-25.4 -3.75)" style="fill:#2c75ba"/></svg>
